<?xml version="1.0" encoding="UTF-8"?>
<svg id="Layer_1" xmlns="http://www.w3.org/2000/svg" version="1.1" viewBox="0 0 196.05 60.18">
  <!-- Generator: Adobe Illustrator 29.7.1, SVG Export Plug-In . SVG Version: 2.1.1 Build 8)  -->
  <defs>
    <style>
      .st0 {
        fill: #e8462b;
      }
    </style>
  </defs>
  <path class="st0" d="M85.31,34.85h-6.5c-2.97,0-4.61,1.39-4.61,3.73s1.52,3.79,4.73,3.79c2.27,0,3.72-.19,5.18-1.58.88-.82,1.2-2.15,1.2-4.17v-1.77ZM85.5,48.74v-2.84c-2.21,2.21-4.29,3.16-8.08,3.16s-6.44-.95-8.4-2.9c-1.77-1.83-2.71-4.48-2.71-7.38,0-5.24,3.6-9.53,11.24-9.53h7.76v-1.64c0-3.6-1.77-5.18-6.12-5.18-3.16,0-4.61.76-6.31,2.71l-5.24-5.11c3.22-3.53,6.37-4.54,11.87-4.54,9.22,0,14.01,3.91,14.01,11.61v21.65h-8.02Z"/>
  <path class="st0" d="M137.97,48.74v-19.88c0-4.48-2.84-6-5.43-6s-5.49,1.51-5.49,5.81v20.07h-8.21v-19.88c0-4.48-2.84-6-5.43-6s-5.49,1.51-5.49,6v19.88h-8.21V15.85h8.01v3.03c2.15-2.21,5.18-3.41,8.21-3.41,3.66,0,6.63,1.33,8.71,4.17,2.78-2.9,5.74-4.17,9.84-4.17,3.28,0,6.25,1.07,8.08,2.9,2.65,2.65,3.6,5.74,3.6,9.34v21.02s-8.2,0-8.2,0Z"/>
  <rect class="st0" x="152.38" y="15.85" width="8.21" height="32.88"/>
  <polygon class="st0" points="187.4 15.85 180.78 36.18 174.09 15.85 165.44 15.85 177.56 48.74 184 48.74 196.05 15.86 196.05 15.85 187.4 15.85"/>
  <path class="st0" d="M60.91,34.16c.18-1.33.28-2.69.28-4.07s-.1-2.74-.28-4.07l-7.2-1.12c-.32-1.44-.78-2.84-1.36-4.2l5.16-5.13c-.64-1.18-1.36-2.34-2.17-3.46s-1.69-2.16-2.62-3.13l-6.47,3.32c-.55-.48-1.12-.94-1.72-1.38-.61-.44-1.23-.84-1.86-1.22l1.16-7.18c-1.21-.58-2.47-1.1-3.79-1.52-1.31-.43-2.64-.75-3.96-.99l-3.29,6.5c-1.47-.13-2.95-.13-4.41,0l-3.29-6.51c-1.32.24-2.64.57-3.96.99-1.31.43-2.57.94-3.79,1.52l1.16,7.19c-1.26.74-2.45,1.61-3.57,2.59l-6.48-3.33c-.93.97-1.81,2.01-2.62,3.13-.81,1.12-1.53,2.27-2.17,3.46l5.17,5.14c-.59,1.37-1.05,2.77-1.36,4.2l-7.2,1.12c-.18,1.33-.28,2.69-.28,4.07s.1,2.74.28,4.07l7.21,1.12c.32,1.43.77,2.84,1.36,4.2l-5.17,5.14c.64,1.18,1.36,2.34,2.17,3.46.81,1.12,1.69,2.16,2.62,3.13l6.47-3.32c.55.48,1.13.95,1.73,1.39.6.44,1.22.84,1.84,1.21l-1.16,7.18c1.21.58,2.47,1.1,3.79,1.52,1.31.43,2.64.75,3.96.99l3.28-6.49c1.47.14,2.95.13,4.42,0l3.29,6.5c1.32-.24,2.65-.57,3.96-.99,1.32-.43,2.57-.94,3.79-1.52l-1.16-7.18c1.26-.75,2.46-1.62,3.58-2.6l6.47,3.32c.93-.97,1.8-2.01,2.62-3.13.81-1.12,1.53-2.27,2.17-3.46l-5.15-5.12c.59-1.37,1.05-2.78,1.37-4.21l7.18-1.11ZM15,37.25c-2.49-5.45-2.07-12.06,1.7-17.25,5.57-7.66,16.33-9.37,23.99-3.8.54.4,1.05.82,1.53,1.27l-5.23,3.8-5.08-6.99-5.6,4.07,5.08,6.99h0s-16,1.57-16,1.57l4.78,6.59-5.18,3.76ZM44.5,40.19c-5.57,7.66-16.33,9.37-23.99,3.8-.5-.36-.97-.75-1.41-1.15l5.16-3.75,5.13,7.06,6.43-14.74,4.72,6.5,5.6-4.07-5.06-6.96,5.19-3.77c2.41,5.42,1.96,11.95-1.77,17.09"/>
</svg>