<?xml version="1.0" encoding="UTF-8"?>
<svg id="Capa_1" xmlns="http://www.w3.org/2000/svg" version="1.1" viewBox="0 0 800 800">
  <!-- Generator: Adobe Illustrator 29.7.1, SVG Export Plug-In . SVG Version: 2.1.1 Build 8)  -->
  <defs>
    <style>
      .st0 {
        fill: #fff;
      }

      .st1 {
        fill: #1a1a1a;
      }
    </style>
  </defs>
  <circle class="st1" cx="400" cy="400" r="400"/>
  <g>
    <path class="st0" d="M249.44,570.66c-32.21,0-60.22-6.82-84.03-20.45-23.81-13.63-42.29-32.8-55.42-57.5-13.14-24.7-19.71-53.65-19.71-86.84v-3.56c0-33.2,6.67-62.14,20.01-86.84,13.34-24.7,32.16-43.87,56.46-57.5,24.3-13.63,52.66-20.45,85.06-20.45,37.74,0,69.1,9.68,94.1,29.05,24.99,19.37,40.95,46.34,47.87,80.91l-92.18,23.41c-2.57-15.81-8.2-27.66-16.89-35.57-8.7-7.9-20.26-11.86-34.68-11.86-18.77,0-33.49,6.77-44.16,20.3-10.67,13.54-16.01,32.36-16.01,56.46v7.71c0,23.52,5.38,42.19,16.15,56.02,10.77,13.83,25.44,20.75,44.01,20.75,15.21,0,27.51-4.3,36.9-12.89,9.38-8.6,15.76-20.7,19.12-36.31l92.47,26.08c-4.94,22.13-14.37,41.35-28.3,57.65-13.93,16.3-31.22,28.95-51.87,37.94-20.65,8.99-43.62,13.49-68.91,13.49Z"/>
    <path class="st0" d="M511.75,560.28l-113.22-312.39h107.29l39.12,128.34,18.67,85.66h2.96l18.67-85.66,36.75-128.34h106.11l-113.22,312.39h-103.14Z"/>
  </g>
</svg>