<?xml version="1.0" encoding="UTF-8"?>
<svg id="Layer_1" xmlns="http://www.w3.org/2000/svg" version="1.1" viewBox="0 0 250 41">
  <!-- Generator: Adobe Illustrator 29.7.1, SVG Export Plug-In . SVG Version: 2.1.1 Build 8)  -->
  <g id="ETH_zurich_logo">
    <g id="ETH_Zurich_short">
      <path d="M153.66,29.84c-1.44,7.14-6.94,7.5-8.05,7.5-3.11,0-4.97-1.79-4.97-4.8.01-.87.12-1.74.29-2.6l3.4-16.99h-4.04l-3.45,17.45v.25c-.18.82-.27,1.66-.29,2.5-.26,4.04,2.79,7.51,6.83,7.77.27.01.54.03.82,0,3.02.13,5.96-1.06,8.02-3.27l-.53,2.87v.06h3.98l5.49-27.59h-4.19l-3.36,16.87.05-.05h0Z"/>
      <path d="M181.12,12.6c-2.95-.08-5.75,1.22-7.6,3.5l.62-3.1h-3.97l-5.41,27.52v.06h4.04l3.36-16.87c.86-4.35,4.19-7.49,7.93-7.49,1.54-.05,3,.67,3.89,1.93h0l3.27-2.92h0c-1.51-1.74-3.72-2.7-6.02-2.6,0,0-.1-.05-.1-.05Z"/>
      <polygon points="114.53 16.44 114.51 16.5 128.26 16.5 109.96 37.2 109.95 37.2 109.26 40.59 128.76 40.59 129.46 37.01 114.88 37.01 133.24 16.32 133.24 16.31 133.93 12.93 115.21 12.93 114.53 16.44 114.53 16.44"/>
      <polygon points="187.69 40.52 187.67 40.59 191.71 40.59 197.2 12.93 193.24 12.93 187.69 40.52 187.69 40.52"/>
      <path d="M242.3,12.6c-2.96-.14-5.83.99-7.89,3.11l3.13-15.4h-4.01l-8.08,40.23h4.02l3.36-16.87c1.44-7.12,7.01-7.49,8.1-7.49,2.45-.26,4.65,1.52,4.9,3.97.03.27.04.56,0,.83-.01.87-.1,1.74-.27,2.6l-3.43,17.05h4.02l3.54-17.43c.18-.9.29-1.82.29-2.74.26-4.04-2.82-7.53-6.85-7.79-.27-.01-.54-.01-.82,0l-.03-.08h.01Z"/>
      <path d="M215.6,12.6c-7.31,0-12.43,5.19-14.08,14.12-.25,1.4-.38,2.83-.39,4.26,0,6.14,3.72,9.95,9.72,9.95,3.46,0,6.79-1.4,9.2-3.89h0l-2.32-2.84h0c-1.61,2-4.04,3.17-6.6,3.17-2.85,0-5.92-1.7-5.92-6.49,0-1.39.16-2.76.44-4.13.43-2.92,1.66-5.66,3.57-7.9,1.57-1.67,3.76-2.61,6.05-2.6,2.18-.09,4.23,1.06,5.29,2.97v.06l2.96-2.5h0c-1.74-2.7-4.78-4.26-7.98-4.1l.06-.08h0Z"/>
      <polygon points="194.73 5.34 198.77 5.34 199.78 .31 195.76 .31 194.73 5.34 194.73 5.34"/>
      <polygon points="155.57 5.34 159.61 5.34 160.61 .31 156.58 .31 155.57 5.34 155.57 5.34"/>
      <polygon points="144.83 5.34 148.86 5.34 149.86 .31 145.84 .31 144.83 5.34 144.83 5.34"/>
      <polygon points="91 15.92 81.94 15.92 85.12 .31 8.08 .31 0 40.59 30.71 40.59 32.73 30.52 14.59 30.52 15.69 24.98 33.82 24.98 35.65 15.92 17.5 15.92 18.61 10.38 47.35 10.38 41.28 40.59 53.88 40.59 59.94 10.38 70.51 10.38 64.44 40.59 77.04 40.59 80.14 24.98 89.21 24.98 86.1 40.59 98.68 40.59 106.78 .31 94.19 .31 91 15.92 91 15.92"/>
    </g>
  </g>
</svg>