<?xml version="1.0" encoding="UTF-8"?>
<svg id="Layer_1" xmlns="http://www.w3.org/2000/svg" version="1.1" viewBox="0 0 256 132">
  <!-- Generator: Adobe Illustrator 29.7.1, SVG Export Plug-In . SVG Version: 2.1.1 Build 8)  -->
  <defs>
    <style>
      .st0 {
        fill: #5fb031;
      }

      .st1 {
        fill: #563d24;
      }
    </style>
  </defs>
  <path class="st1" d="M28.9.15c1.08.28,1.92.66,2.88,1.22.58.34,1.23,1.2,1.82,1.05-.17,2.58-.09,5.18-.17,7.77-.64,21.15-1.63,42.32-1.92,63.49-.05,4.05-.37,4.55,1.91,8.1,1.41,2.2,3.65,3.69,5.23,5.76.53.69,1.39,2.76,1.39,3.58v4.36c0,.54-.17,1.28-.17,1.66-.66-.33-1.35-.98-1.92-1.48-5.3-4.63-10.64-9.25-15.87-13.96-.14-.12-.15-.42-.17-.43,1.83-2.46,1.8-4.66,1.75-7.6-.35-23.25-1.3-46.51-1.57-69.77,0-.44-.33-.87-.02-1.22.88-.65,1.71-1.37,2.72-1.82l2.01-.7h2.09Z"/>
  <path class="st0" d="M-.04,66.26h9.59c.35.31-1.96,1.78-1.67,2.27,4.59,4.01,8.83,8.4,13.34,12.48.3.27.65.21.71.25.02.01.03.31.17.43,5.23,4.71,10.57,9.32,15.87,13.96.57.5,1.26,1.15,1.92,1.48-.01,1.12,0,2.45,0,3.58v3.49c0,1.06-.3,2.68-.35,3.75-.58-.28-3.33-3.31-3.57-3.31-.59-.01-.1,2.01-.09,2.26l-3.14,2.97c.13-2.64.35-5.27.32-7.91-1.54-1.45-3.14-2.85-4.68-4.3-.39-.37-.9-.56-1.05-.7-3.47-3.24-7.17-6.68-10.63-9.94-.89-.84-1.92-1.88-2.88-2.79-3.69-3.5-7.23-7.2-10.89-10.74-.5-.29-2.13,2.2-2.44,1.84l-.52-7.85v-1.22Z"/>
  <path class="st0" d="M19.66,98.01c.75.75,1.52,1.51,2.27,2.27,1.5,1.52,2.77,3.07,4.36,4.54.13.12.47.69.61.69l1.83-1.74c.05,1.02-.12,2.94.26,3.83.21.49,3.12,3.03,3.75,3.67,1.1,1.11,2.21,2.21,3.31,3.31,1.04,1.05,2.1,2.09,3.14,3.14,2.97,2.99,5.9,6.03,8.87,9.02l-.15.5-4.54,4.61h-.52c-1.27-1.52-2.79-2.8-4.18-4.19-.81-.81-1.63-1.63-2.44-2.44-1.34-1.34-2.67-2.68-4.01-4.01-.99-.99-1.96-1.98-2.96-2.97-.32-.32-2.18-2.44-2.35-2.44-.11,0-.84.97-1.13,1.04.01-.67.34-1.53.08-2.09-.36-.78-2.91-2.67-3.57-3.49.3,2.96.22,5.93.35,8.9l-3.84,3.66c.12-3.54.26-7.12.35-10.64l2.61-2.53c-.74-.92-1.78-1.55-2.61-2.35-1.29-1.25-2.42-2.71-3.84-3.84-.02-.63-.17-1.55-.17-2.01v-4.88c0-1.29-.21-2.72-.17-4.1,1.57,1.5,3.17,3,4.71,4.54Z"/>
  <path class="st0" d="M238.09,113.88c2.04.17,6.97,1.24,8.61-.02.76-.58.83-2.23.81-3.12-.18-.2-1.27,1.01-1.51,1.19-3.51,2.58-7.97.82-9.25-3.25-2.18-6.92.7-18.04,9.7-12.49l1.06.94v-1.92h8.54v5.06c0,.07-1.29-.21-1.37.29-.28,4.02.3,8.38-.03,12.36-.71,8.73-10.32,7.58-16.56,6.19v-5.23ZM245.19,100.32c-.58.1-1.18.53-1.31,1.13-.15.68-.14,4.1-.03,4.84.21,1.36,2.38,1.54,3.13.71.68-.75.64-4,.5-5.05-.17-1.29-1.03-1.85-2.3-1.63Z"/>
  <path class="st0" d="M154.06,88.24v8.9c.77-.31,1.19-1,1.93-1.47,4.34-2.7,9.05.3,9.05,5.22v6.54c0,.07,1.39-.07,1.39,0v5.23h-10.11v-5.23c0-.07,1.39.07,1.39,0v-5.84c0-1.24-2.58-1.89-3.35-.38-.05.11-.31.86-.31.91v5.32c0,.07,1.39-.07,1.39,0v5.23h-9.94v-5.23c0-.07,1.39.07,1.39,0v-14.13c0-.07-1.39.07-1.39,0v-5.06h8.54Z"/>
  <path class="st1" d="M126.52,88.24v19.19c0,.07,1.39-.07,1.39,0v5.23h-8.72v-1.92c-2.15,2.29-5.23,3.2-8.08,1.54-4-2.33-3.95-11.27-1.83-14.85s7.28-3.48,9.9-.3v-3.84h-1.92v-5.06h9.24ZM117.06,100.31c-.83.12-1.28.53-1.45,1.35-.19.89-.2,4.32.2,5.06.58,1.07,3.05,1.05,3.35-.29.15-.67.14-4.11.03-4.84-.16-1.02-1.18-1.42-2.12-1.28Z"/>
  <path class="st0" d="M234.43,107.43c.07.07,1.39-.07,1.39,0v5.23h-9.85s-.26-.24-.26-.26v-4.71c0-.41,1.34-.21,1.4-.26.22-.21.04-5.72-.08-6.11-.5-1.64-3.41-.89-3.41.1v6.02c0,.07,1.39-.07,1.39,0v5.23h-10.11v-5.23c0-.07,1.39.07,1.39,0v-7.15c0-.07-1.39.07-1.39,0v-5.06h8.72v1.92c2.44-2.86,7.78-3.64,9.8.05.33.6,1.01,2.73,1.01,3.35,0,.92-.24,6.65,0,6.89Z"/>
  <path class="st0" d="M185.44,107.43c.2.05,1.39-.07,1.39,0v5.23h-8.54c-.03-.49.04-1,0-1.49-.09-1.06-.33-.18-.53-.01-2.3,1.94-4.86,2.48-7.75,1.51-2.43-.82-3.36-3.02-3.03-5.49.48-3.6,5.25-4.73,8.27-4.98.59-.05,2.92.21,3.04-.28.11-.45-.66-1.39-1.2-1.39-3.01-.52-6.07.3-9.08.62v-5.15c.6-.46,1.52-.55,2.26-.7,4-.8,12.03-1.67,14.37,2.55.22.39.8,1.97.8,2.33v7.24ZM178.29,105.33c-.94-.05-4.11-.22-3.63,1.44.24.83,1.91.78,2.59.57s1.13-1.31,1.04-2.01Z"/>
  <path class="st1" d="M76.8,94.74c7.94-.81,12.75,4.56,10.62,12.37-2.24,8.23-16.3,8.11-18.28-.28-1.43-6.06,1.14-11.43,7.66-12.1ZM77.84,100.31c-.64.13-1.18.67-1.31,1.31-.17.84-.14,4.41.24,5.09.68,1.22,3.03.97,3.35-.46.15-.65.13-3.78.03-4.49-.18-1.15-1.23-1.67-2.3-1.45Z"/>
  <path class="st1" d="M96.32,94.74c8.1-.83,13.01,5.07,10.45,12.89-2.62,7.97-17.33,7.43-18.38-1.92-.66-5.89,1.73-10.34,7.93-10.98ZM97.36,100.31c-.58.09-1.18.55-1.32,1.13-.15.67-.14,3.93-.03,4.66.3,1.94,3.28,1.79,3.61-.03.17-.96.22-4.74-.49-5.36-.39-.35-1.27-.49-1.78-.4Z"/>
  <path class="st1" d="M71.43,93.47c-1.76.29-5.35-1.11-5.23,1.74h2.44v4.97c0,.44-2.06.21-2.44.26v6.98h2.44v5.23h-11.16v-5.23c0-.07,1.39.07,1.39,0v-6.98c0-.07-1.39.16-1.39-.26v-4.97c.26-.04,1.34.06,1.4,0,.08-.08.14-1.88.22-2.31.9-4.45,4.49-5.47,8.59-5.2.51.03,3.74.52,3.74.97v4.8Z"/>
  <path class="st0" d="M143.6,95.57v4.36c-2.28-.16-4.96-.62-7.24-.35-.62.07-1.62.58-.77,1.13.67.43,3,.49,4,.71,3.25.71,5.47,2.49,5.22,6.1-.43,6.26-7.87,5.89-12.43,5.29-.98-.13-2.23-.29-3.08-.76v-4.27c1.12,0,8.13,1.1,8.38.06.35-1.45-2.61-1.33-3.64-1.57-3.75-.88-6.73-3.29-5.49-7.53,1.58-5.39,10.91-4.21,15.05-3.17Z"/>
  <path class="st0" d="M203.22,95.04v5.58c-1.73-.25-4.81-.73-6.08.81-.21.26-.72,1.46-.72,1.72v4.27h2.79v5.23h-11.51v-5.23c0-.07,1.39.07,1.39,0v-7.15c0-.07-1.39.07-1.39,0v-5.06h8.72c.05.59-.07,1.26,0,1.83.11.88.51-.3.62-.43,1.72-2.09,3.64-2.29,6.18-1.58Z"/>
  <path class="st0" d="M33.43,81.79l14.12-13.17c0-.22-1.96-1.63-1.91-2.18h9.59l-.52,9.07c-.31.35-1.77-1.96-2.26-1.67l-13.77,13.7c-1.58-2.06-3.82-3.56-5.23-5.76Z"/>
  <path class="st0" d="M212.81,95.22v12.21c0,.07,1.39-.07,1.39,0v5.23h-10.11v-5.23c0-.07,1.39.07,1.39,0v-6.98c0-.07-1.39.16-1.39-.26v-4.97h8.72Z"/>
  <path class="st1" d="M39.53,107.95c-.05,1.04-.17,2.47-.17,3.4v4.01c0,.06-.17.29-.18.52-.04.61.04,1.23,0,1.84-1.04-1.05-2.1-2.09-3.14-3.14-.29-2.55-.08-5.12-.17-7.67,0-.26-.5-2.28.09-2.26.24,0,2.99,3.03,3.57,3.31Z"/>
  <rect class="st0" x="206.01" y="88.24" width="5.75" height="5.23"/>
  <path class="st1" d="M27.33,96.96c-.29.15-.87,1.08-.87,1.31v4.19c0,.06-.17.29-.18.52-.04.61.04,1.23,0,1.84-1.59-1.46-2.86-3.01-4.36-4.54-.29-1.68-.04-4.55-2.27-2.27-1.53-1.54-3.14-3.03-4.71-4.54.06-2.29.17-4.61,1.74-6.45,3.47,3.27,7.17,6.7,10.63,9.94Z"/>
  <path class="st0" d="M16.17,126.61l-4.79,4.54-5.14-4.98,9.58-9.51c.03.72.17,1.78.17,2.35v3.84c0,1.04.11,2.62.17,3.75Z"/>
  <path class="st1" d="M19.13,108.3c-.03,1.62.04,3.26,0,4.88-.09,3.52-.23,7.1-.35,10.64-.07,1.89.04,4.4-.17,6.2-.18,1.54-1.76,1.5-2.17.25-.25-.76-.05-2.02-.1-2.87-.02-.28-.16-.55-.17-.78-.06-1.13-.17-2.71-.17-3.75v-3.84c0-.58-.14-1.63-.17-2.35-.18-4.07-.38-8.14-.52-12.21,1.42,1.13,2.54,2.59,3.84,3.84Z"/>
  <path class="st1" d="M25.76,116.85c-.08,3.92-.05,8.26-.34,12.13-.14,1.82-.81,2.64-2.24,1.01-.32-3-.24-6.03-.39-9.04-.01-.28-.16-.56-.17-.78-.13-2.96-.05-5.94-.35-8.9.66.82,3.21,2.72,3.57,3.49.26.56-.07,1.42-.08,2.09Z"/>
  <path class="st1" d="M32.21,121.21c-.02,2.87-.09,5.78-.36,8.62-.15.7-1.24,1.29-1.83.81-.55-.44-.37-4.6-.41-5.52-.02-.41-.17-.79-.19-1.21-.08-1.89.03-3.79-.17-5.68,1,.98,1.97,1.98,2.96,2.97Z"/>
  <path class="st1" d="M36.22,125.22c.81.81,1.63,1.63,2.44,2.44.23.98,0,4.47-1.75,3.4-1.03-.62-.17-4.71-.7-5.84Z"/>
  <path class="st1" d="M32.73,109.87c-.02.46.02.93,0,1.4-.62-.63-3.54-3.17-3.75-3.67-.38-.89-.21-2.82-.26-3.83-.1-2.03-.11-4.1-.35-6.1,1.54,1.45,3.14,2.85,4.68,4.3.03,2.64-.19,5.27-.32,7.91Z"/>
</svg>