<?xml version="1.0" encoding="UTF-8"?>
<svg id="Layer_1" xmlns="http://www.w3.org/2000/svg" version="1.1" viewBox="0 0 382 130">
  <!-- Generator: Adobe Illustrator 29.7.1, SVG Export Plug-In . SVG Version: 2.1.1 Build 8)  -->
  <defs>
    <style>
      .st0 {
        fill: #231f20;
      }

      .st1 {
        fill: #c5112e;
      }
    </style>
  </defs>
  <path class="st0" d="M353.5,15.92c-5.19,0-12.06.56-14.45.56-1.4,0-6.87-.14-8.56-.14v1.4c2.81.56,4.49,1.54,4.49,4.21v38.01c0,2.67-1.54,3.93-4.49,4.35v1.4c1.68,0,6.73-.28,8.14-.28,2.38,0,8.7.42,13.89.42,18.1,0,29.18-10.66,29.18-25.25s-10.66-24.68-28.2-24.68h0ZM139.73,15.92c-2.67,0-9.54.42-11.92.42-1.54,0-6.59-.14-8.28-.14v1.4c3.09.56,4.35,1.96,4.35,4.35v37.73c0,2.67-1.54,3.93-4.35,4.49v1.4c1.68,0,6.87-.28,8.28-.28,1.54,0,6.87.28,8.56.28v-1.4c-2.95-.56-4.49-1.96-4.49-4.49v-16.97c.84.14,1.54.14,2.24.28,3.79.56,5.89,2.38,7.57,4.49,2.67,3.37,7.57,10.38,10.24,13.61,3.09,3.79,6.31,5.19,10.38,5.19,1.82,0,4.35-.28,5.75-.56v-1.12c-3.09-.14-6.17-3.37-8.42-6.17-2.38-2.81-8.28-11.08-10.38-13.47-1.68-1.96-3.37-2.95-3.37-2.95,7.43-1.82,12.34-6.31,12.34-12.76-.13-8.42-6.72-13.33-18.5-13.33h0ZM295.01,15.92c-2.67,0-9.54.42-11.92.42-1.54,0-6.59-.14-8.28-.14v1.4c3.09.56,4.35,1.96,4.35,4.35v37.73c0,2.67-1.68,3.93-4.35,4.49v1.4c1.68,0,6.87-.28,8.14-.28,1.54,0,6.87.28,8.56.28v-1.4c-2.95-.56-4.63-1.96-4.63-4.49v-16.97c.84.14,1.54.14,2.24.28,3.79.56,5.89,2.38,7.57,4.49,2.67,3.37,7.43,10.38,10.1,13.61,3.09,3.79,6.31,5.19,10.24,5.19,1.82,0,4.35-.28,5.89-.56v-1.12c-3.23-.14-6.17-3.37-8.42-6.17s-8.14-11.08-10.1-13.47c-1.68-1.96-3.37-2.95-3.37-2.95,7.43-1.82,12.34-6.31,12.34-12.76.02-8.42-6.58-13.33-18.36-13.33h0ZM83.62,16.06s-.84,3.23-1.54,4.77l-15.71,37.87c-1.12,2.67-2.81,4.77-6.03,5.47v1.26l7.15-.14c.98,0,5.33.14,7.01.14v-1.26c-2.81-.7-3.51-1.82-3.51-3.23,0-.84.42-2.24.84-3.23l3.23-8.14h18.38l3.51,8c.56,1.12.98,2.38.98,3.37,0,1.12-.7,2.38-3.23,2.95v1.26c1.82,0,7.15-.14,8.42-.14s6.87.14,8.7.14v-1.26c-3.37-.84-4.63-2.67-5.75-5.33l-16.69-38.01c-.7-1.54-1.4-4.77-1.4-4.77h-4.35v.28h0ZM239.74,16.06s-.84,3.23-1.4,4.77l-15.71,37.87c-1.12,2.67-2.81,4.77-5.89,5.47v1.26l7.29-.14c.98,0,5.19.14,6.73.14v-1.26c-2.81-.7-3.51-1.82-3.51-3.23,0-.84.42-2.24.84-3.23l3.23-8.14h18.52l3.51,8c.56,1.12.84,2.38.84,3.37,0,1.12-.7,2.38-3.09,2.95v1.26c1.82,0,7.15-.14,8.42-.14s6.87.14,8.7.14v-1.26c-3.37-.84-4.63-2.67-5.75-5.33l-16.69-38.01c-.7-1.54-1.54-4.77-1.54-4.77h-4.49v.28h-.01ZM.3,16.2v1.4c2.38.56,3.93,1.68,3.93,4.21v38.29c0,2.67-1.68,3.65-3.93,4.21v1.26c1.12,0,6.45-.14,7.72-.14,1.54,0,7.01.14,8.28.14v-1.26c-2.38-.56-4.07-1.54-4.07-4.21v-18.1h28.48v18.1c0,2.67-1.54,3.65-3.93,4.21v1.26c1.26,0,6.59-.14,8.14-.14,1.26,0,6.59.14,7.86.14v-1.26c-2.38-.56-4.07-1.68-4.07-4.21V21.81c0-2.67,1.68-3.65,4.07-4.21v-1.4c-1.26,0-6.59.14-7.86.14-1.54,0-6.87-.14-8.14-.14v1.4c2.38.56,3.93,1.54,3.93,4.21v15.99H12.09v-15.99c0-2.67,1.68-3.65,4.07-4.21v-1.4c-1.26,0-6.73.14-8.28.14-1.13.01-6.46-.14-7.58-.14ZM166.38,16.35v1.4c2.81.56,4.49,2.38,5.61,4.77l19.36,43.34h3.79l17.67-41.66c1.68-3.93,3.51-5.61,6.45-6.31v-1.4c-1.68,0-6.31.28-7.43.28-1.26,0-5.05-.28-6.73-.28v1.4c1.96.42,3.37,1.4,3.37,2.95,0,1.4-.7,3.23-1.68,5.47l-12.06,28.9-12.76-28.9c-1.4-2.95-2.1-4.63-2.1-5.75,0-1.68,1.82-2.52,3.37-2.81v-1.4c-1.82,0-7.01.28-8.28.28-1.01-.14-6.76-.28-8.58-.28h0ZM137.34,19.15c8.14,0,12.48,4.07,12.48,10.8,0,4.63-2.95,9.96-12.2,9.96-2.24,0-4.63-.14-6.17-.28v-19.92c1.82-.42,4.35-.56,5.89-.56ZM292.77,19.15c8.14,0,12.48,4.07,12.48,10.8,0,4.63-2.95,9.96-12.2,9.96-2.24,0-4.63-.14-6.17-.28v-19.92c1.82-.42,4.2-.56,5.89-.56h0ZM351.26,19.15c13.75,0,21.88,8.98,21.88,21.88s-7.72,21.18-22.44,21.18c-2.52,0-5.89-.14-7.72-.56V19.57c1.83-.28,5.48-.42,8.28-.42ZM84.04,27.43l7.86,18.24h-15.3s7.44-18.24,7.44-18.24ZM240.16,27.43l7.86,18.24h-15.15s7.29-18.24,7.29-18.24Z"/>
  <path class="st1" d="M218,87.88c-5.19,0-8.56,2.67-8.56,7.01,0,4.91,4.91,6.73,7.29,7.86,3.23,1.54,6.03,2.81,6.03,5.61s-2.1,4.21-5.47,4.21c-1.54,0-3.37-.42-4.63-1.26-1.12-.7-1.96-2.1-2.38-3.51h-.7v5.33c1.82.28,4.07,1.26,7.57,1.26,5.89,0,9.26-2.95,9.26-7.15,0-4.49-3.79-6.17-7.43-7.72-2.95-1.26-6.03-2.95-6.03-5.75,0-2.1,1.4-4.07,4.77-4.07,2.95,0,5.75,1.12,6.73,4.07h.7v-5.19c-2.1.15-3.78-.7-7.15-.7h0ZM127.8,87.88c-8,0-13.47,5.61-13.47,13.33,0,7.29,4.35,13.19,13.61,13.19,4.49,0,7.15-1.54,8.98-1.26l.28-5.61h-.7c-1.26,3.65-4.21,5.05-8.14,5.05-7.15,0-9.68-6.31-9.68-11.36,0-6.17,3.23-11.36,9.12-11.36,3.51,0,6.87,1.68,8.28,5.05h.7l-.28-5.61c-2.38-.01-4.77-1.42-8.7-1.42h0ZM246.62,87.88c-8,0-13.47,5.61-13.47,13.33,0,7.29,4.35,13.19,13.75,13.19,4.49,0,7.15-1.54,8.98-1.26l.28-5.61h-.7c-1.26,3.65-4.21,5.05-8.14,5.05-7.01,0-9.68-6.31-9.68-11.36,0-6.17,3.23-11.36,9.12-11.36,3.51,0,6.87,1.68,8.28,5.05h.7l-.28-5.61c-2.53-.01-4.92-1.42-8.84-1.42ZM309.74,87.88c-8,0-13.05,6.03-13.05,13.33s5.05,13.19,13.05,13.19,13.05-5.89,13.05-13.19-5.05-13.33-13.05-13.33ZM341.72,87.88c-8,0-13.05,6.03-13.05,13.33s5.05,13.19,13.05,13.19,13.05-5.89,13.05-13.19-5.05-13.33-13.05-13.33ZM57.95,88.17c-.56.14-1.4.28-1.82.28h-15.99v.7c1.54.28,2.24.98,2.24,2.24v19.5c0,1.4-.84,2.1-2.24,2.38v.7c.84,0,3.65-.14,4.35-.14h8.14c2.81,0,4.21,0,6.59.28l.7-5.33-.7-.14c-.84,1.96-1.68,3.23-5.05,3.23h-7.72v-10.38h5.47c.7,0,1.68.14,2.1.14,1.12.28,1.68,1.12,1.96,2.1h.7c0-.84-.14-2.67-.14-3.23s0-2.24.14-3.09h-.7c-.28.98-.7,1.68-1.96,1.96-.42.14-1.4.14-2.1.14h-5.47v-9.12h6.73c3.09,0,4.07,1.26,4.63,2.95h.7l.14-5.19h-.7v.02h0ZM78.43,88.17c-2.67,0-6.03.28-7.29.28-.7,0-3.51-.14-4.35-.14v.7c1.4.28,2.24.84,2.24,2.24v19.64c0,1.4-.84,1.96-2.38,2.24v.7c.84,0,3.51-.14,4.21-.14,1.26,0,4.35.28,7.01.28,9.26,0,15.01-5.61,15.01-13.05s-5.33-12.75-14.45-12.75h0ZM152.63,88.31s-.42,1.68-.7,2.52l-8.14,19.64c-.56,1.4-1.54,2.38-3.09,2.81v.7l3.79-.14c.56,0,2.67.14,3.51.14v-.7c-1.4-.42-1.82-.98-1.82-1.68,0-.42.28-1.12.42-1.68l1.68-4.21h9.54l1.82,4.21c.28.56.42,1.26.42,1.68,0,.56-.42,1.26-1.68,1.54v.7c.98,0,3.65-.14,4.35-.14s3.51.14,4.49.14v-.7c-1.68-.42-2.38-1.4-2.95-2.81l-8.56-19.64c-.28-.84-.7-2.52-.7-2.52h-2.38v.14ZM263.31,88.45v.7c1.26.28,2.1.84,2.1,2.24v19.64c0,1.4-.84,1.96-2.1,2.24v.7c.56,0,3.37-.14,4.07-.14s3.65.14,4.21.14v-.7c-1.26-.28-2.1-.84-2.1-2.24v-9.26h14.59v9.26c0,1.4-.84,1.96-1.96,2.24v.7c.7,0,3.37-.14,4.21-.14.7,0,3.51.14,4.07.14v-.7c-1.26-.28-2.1-.84-2.1-2.24v-19.64c0-1.4.84-1.96,2.1-2.24v-.7c-.56,0-3.51.14-4.07.14-.84,0-3.51-.14-4.21-.14v.7c1.26.28,1.96.84,1.96,2.24v8.28h-14.59v-8.28c0-1.4.84-1.96,2.1-2.24v-.7c-.56,0-3.51.14-4.21.14-.7-.14-3.51-.14-4.07-.14ZM98.91,88.45v.7c1.54.28,2.24.98,2.24,2.38v19.36c0,1.4-.7,2.1-2.24,2.38v.7c.84,0,3.79-.14,4.49-.14.84,0,3.51.14,4.35.14v-.7c-1.54-.28-2.24-.98-2.24-2.38v-19.36c0-1.4.84-1.96,2.24-2.38v-.7c-.84,0-3.65.14-4.35.14-.85-.14-3.65-.14-4.49-.14ZM171.99,88.45v.7c1.54.28,2.24.98,2.24,2.38v19.36c0,1.4-.7,2.1-2.24,2.38v.7c.84,0,3.79-.14,4.49-.14h8.14c2.81,0,4.21,0,6.59.28l.7-5.33-.7-.14c-.84,1.96-1.82,3.23-5.05,3.23h-7.72v-20.34c0-1.4.84-1.96,2.24-2.38v-.7c-.84,0-3.65.14-4.35.14-.69-.14-3.5-.14-4.34-.14ZM360.66,88.45v.7c1.54.28,2.24.98,2.24,2.38v19.36c0,1.4-.7,2.1-2.24,2.38v.7c.84,0,3.79-.14,4.49-.14h8.14c2.81,0,4.21,0,6.59.28l.7-5.33-.7-.14c-.84,1.96-1.82,3.23-5.05,3.23h-7.72v-20.34c0-1.4.84-1.96,2.24-2.38v-.7c-.84,0-3.65.14-4.35.14-.55-.14-3.5-.14-4.34-.14ZM2.26,88.45v.7c1.54.28,2.24.98,2.1,2.24l-1.4,18.94c-.14,1.54-.98,2.52-2.52,2.95v.7h7.16v-.7c-1.68-.42-2.1-1.4-2.1-2.52l1.12-16.83,8.7,20.06h1.54l8.7-20.2,1.12,16.83c0,1.12-.42,2.1-2.1,2.52v.7h8.7v-.7c-1.68-.42-2.38-1.26-2.52-2.95l-1.4-18.94c-.14-1.26.56-1.96,1.96-2.24v-.7h-6.04l-8.42,19.5-8.42-19.5h-2.81c-.43.14-2.39.14-3.37.14ZM309.74,89.85c6.03,0,8.56,5.61,8.56,11.5s-2.67,11.36-8.56,11.36-8.7-5.33-8.7-11.36,2.67-11.5,8.7-11.5ZM341.72,89.85c5.89,0,8.56,5.61,8.56,11.5s-2.67,11.36-8.56,11.36-8.56-5.33-8.56-11.36c-.14-6.03,2.53-11.5,8.56-11.5ZM77.17,89.85c7.15,0,11.36,4.63,11.36,11.22s-3.93,10.94-11.5,10.94c-1.4,0-2.95-.14-3.79-.28v-21.74c.84,0,2.52-.14,3.93-.14ZM152.77,94.2l4.07,9.4h-7.86l3.79-9.4h0Z"/>
</svg>