<?xml version="1.0" encoding="UTF-8"?>
<svg id="Layer_1" xmlns="http://www.w3.org/2000/svg" version="1.1" viewBox="0 0 512 512">
  <!-- Generator: Adobe Illustrator 29.7.1, SVG Export Plug-In . SVG Version: 2.1.1 Build 8)  -->
  <defs>
    <style>
      .st0 {
        fill: #0b5394;
      }

      .st0, .st1 {
        fill-rule: evenodd;
      }

      .st1 {
        fill: #fff;
      }
    </style>
  </defs>
  <path class="st0" d="M256,512h0c141.38,0,256-114.62,256-256h0C512,114.62,397.38,0,256,0h0C114.62,0,0,114.62,0,256h0c0,141.38,114.62,256,256,256Z"/>
  <path class="st1" d="M419.56,405.33h-64.29v-109.5c0-30.02-11.41-46.8-35.17-46.8-25.85,0-39.36,17.46-39.36,46.8v109.5h-61.96v-208.59h61.96v28.1s18.63-34.47,62.89-34.47,75.92,27.02,75.92,82.9v132.07ZM144.87,169.43c-21.1,0-38.2-17.24-38.2-38.49s17.1-38.49,38.2-38.49,38.19,17.24,38.19,38.49-17.09,38.49-38.19,38.49ZM112.88,405.33h64.6v-208.59h-64.6v208.59Z"/>
</svg>