<?xml version="1.0" encoding="UTF-8"?>
<svg id="Layer_1" xmlns="http://www.w3.org/2000/svg" version="1.1" viewBox="0 0 490 160">
  <!-- Generator: Adobe Illustrator 29.7.1, SVG Export Plug-In . SVG Version: 2.1.1 Build 8)  -->
  <defs>
    <style>
      .st0 {
        fill: none;
        stroke: #125873;
        stroke-miterlimit: 10;
        stroke-width: 6px;
      }

      .st1 {
        fill: #9e2a2a;
      }

      .st2 {
        fill: #8e8d8d;
      }
    </style>
  </defs>
  <g>
    <path class="st1" d="M19.68,72.2c-3.5,0-7,.11-10.49-.04-2.46-.1-5.79.88-5.84-3.42-.06-5.01,2.34-8.65,6.09-8.81,4.66-.2,9.33-.07,13.99-.09,2.17,0,4.34.08,6.5-.07,4.49-.3,7.84-3.59,7.83-7.52,0-3.95-3.28-7.53-7.61-7.89-3.48-.29-7-.05-10.49-.19-10.27-.44-17.78-7.74-19.02-18.39C-.43,16.52,6.03,6.4,15.58,5.03c9.31-1.34,18.9-.88,28.37-.81,1.09,0,3.22,2.72,3.03,3.89-.53,3.31,0,7.96-5.42,8.06-6.5.12-13-.06-19.49.14-5.74.18-8.63,2.82-8.76,7.49-.12,4.57,2.52,7.65,7.1,7.98,2.99.22,6,0,8.99.14,11.68.52,20.82,9.38,20.82,20.12,0,11.74-8.88,20.07-21.52,20.17-3,.02-6,0-9,0h0Z"/>
    <path class="st1" d="M227.1,19.72c-6.55,16.15-12.51,30.96-18.57,45.74-2.5,6.1-4.87,7.34-11.14,6.75-3.27-.31-4.05-1.86-2.91-4.69,7.68-19,15.32-38.01,23.13-56.95,1.74-4.21,5.45-6.44,9.93-6.42,4.52.02,7.94,2.47,9.71,6.69,3.54,8.45,6.93,16.96,10.38,25.45,3.76,9.26,7.61,18.49,11.22,27.81.91,2.36,3.75,5.06.45,7.56-2.58,1.95-9.41.31-11.33-2.52-.92-1.36-1.53-2.95-2.15-4.48-5.47-13.42-10.89-26.86-16.36-40.28-.48-1.17-1.15-2.26-2.37-4.64v-.02Z"/>
    <path class="st1" d="M155.04,19.71c-2.5,5.91-4.55,10.59-6.47,15.32-4.07,10.02-8.06,20.07-12.11,30.1-.56,1.38-1.14,2.8-1.98,4.01-1.94,2.81-8.76,4.45-11.33,2.5-3.3-2.5-.49-5.2.44-7.55,6.54-16.56,13.26-33.04,19.92-49.55.5-1.23,1.07-2.44,1.62-3.65,1.89-4.17,5.17-6.72,9.68-6.75,4.91-.03,8.55,2.61,10.44,7.2,5.07,12.31,10.04,24.65,15.04,36.99,2.12,5.24,4.36,10.45,6.23,15.78.87,2.48,3.97,5.51-.19,7.72-3.48,1.85-9.09-.05-10.97-3.36-.9-1.58-1.57-3.31-2.25-5-5.19-12.8-10.34-25.61-15.54-38.4-.55-1.37-1.26-2.67-2.55-5.35h.02Z"/>
    <path class="st0" d="M463.21,72.19c-18-.03-32.44-13.64-34-32.05-1.38-16.27,11.09-32.08,27.67-35.39,9.97-1.99,18.8.44,26.88,6.21,2.24,1.6,4.97,3.23,2.24,6.78-3.8,4.95-5.83,5.76-9.6,3.11-7.33-5.13-14.95-6.03-23.04-1.89-10.3,5.27-14.65,17.64-9.86,28.17,4.76,10.48,17.08,15.49,27.69,11.22,1.39-.56,2.73-1.25,4.03-1.98,5.02-2.82,8.5-2,11.06,3.25.56,1.16-.32,3.92-1.44,4.85-6.21,5.16-13.43,7.89-21.62,7.71h-.01Z"/>
    <path class="st0" d="M335.12,43.5c0-6.83,0-13.66-.01-20.49-.01-4.51-2.2-6.77-6.57-6.79-3.33-.02-6.66-.05-10-.04-4.03,0-4.42-2.72-4.41-5.79.01-3.09-.13-6.4,4.27-6.42,15.33-.06,30.66-.1,45.98.05,4.82.05,3.92,3.98,4.07,7.05.15,3.11-.76,5.21-4.41,5.14-3.83-.08-7.68.2-11.49-.04-4-.25-5.18,1.47-5.14,5.29.15,14.66.07,29.32.05,43.98-.01,6.22-3.97,8.97-9.69,6.28-1.39-.65-2.46-3.4-2.52-5.23-.28-7.65-.12-15.32-.12-22.99h0Z"/>
    <path class="st1" d="M270.26,37.73c0-9.15-.08-18.3.02-27.45.06-5.48,1.12-6.38,6.48-6.38s6.4.91,6.44,6.43c.09,14.14.03,28.29.05,42.43,0,6.99.08,7.06,6.86,7.09,5.99.02,11.98-.06,17.97.05,4.2.08,8.56,6.79,6.67,10.45-.51.98-2.42,1.74-3.7,1.76-11.98.13-23.96.04-35.94.09-4.25.02-4.82-2.79-4.84-6.01-.04-9.48-.01-18.97-.02-28.45h.01Z"/>
    <path class="st0" d="M400.51,72.18c-6,0-12-.04-17.99.02-3.14.03-4.54-1.39-4.52-4.53.05-10.5.04-20.99.01-31.49,0-2.92,1.41-4.27,4.27-4.27,8.83,0,17.66,0,26.49,0,4.67,0,4.61,3.22,4.68,6.57.07,3.46-.62,5.9-4.86,5.77-4.66-.15-9.33.06-13.99-.03-2.92-.05-4.09,1.15-4.29,4.12-.79,11.48-.83,11.52,10.43,11.52,5.16,0,10.33-.03,15.49.01,5.77.05,6.29.61,6.27,6.3-.02,5.58-.45,6-6.49,6.04-5.16.03-10.33,0-15.49,0v-.03h-.01Z"/>
    <path class="st1" d="M109.43,72.76c-4.7-.11-7.95-1.95-10.96-5.44-5.97-6.92-12.42-13.43-18.66-20.12-5.9-6.32-6.07-11.52-.22-17.97,6.37-7.02,13.12-13.7,19.41-20.78,3.64-4.1,8.04-5.07,13.05-4.44,1.34.17,3.47.95,3.67,1.81.3,1.3-.37,3.28-1.32,4.35-4.85,5.48-9.91,10.77-14.92,16.1-2.17,2.3-4.41,4.53-6.61,6.8-4.83,5-4.77,4.95-.16,9.84,6.73,7.14,13.45,14.29,19.96,21.63,1.49,1.68,2.11,4.13,3.13,6.22-2.13.66-4.25,1.33-6.38,1.99h.01Z"/>
    <path class="st1" d="M60.25,37.45c0-8.98-.07-17.95.02-26.93.06-5.79,1.08-6.69,6.73-6.63,5.19.06,6.19.98,6.21,6.65.07,18.45.06,36.9,0,55.36-.02,5.6-.84,6.3-6.42,6.29-5.44,0-6.44-.83-6.51-6.32-.11-9.47-.03-18.95-.04-28.43h.01Z"/>
    <path class="st0" d="M400.21,16.2c-5.83,0-11.66-.11-17.49.04-4.32.11-4.79-2.46-4.76-5.84.03-3.41.14-6.49,4.76-6.48,10.99.03,21.98-.08,32.97.05,4.02.05,8.14,6.89,6.17,10.35-.61,1.07-2.73,1.75-4.18,1.8-5.82.2-11.66.08-17.48.08h0Z"/>
  </g>
  <g>
    <path class="st2" d="M149.51,159.22c1.92-4.86,3.98-9.67,5.68-14.61.53-1.52.59-3.57.02-5.05-3.39-8.81-7.03-17.52-10.6-26.29,4.47-1.11,4.58-1.05,6.1,2.85,2.56,6.54,5.12,13.08,7.97,20.38,1.53-3.96,2.8-7.23,4.05-10.5,1.22-3.2,2.71-6.32,3.55-9.62.88-3.45,2.75-4.33,6.27-3.28-.36.97-.69,1.96-1.08,2.94-5.43,13.54-10.87,27.08-16.3,40.62-.33.83-.56,1.71-.84,2.56h-4.84.02Z"/>
    <path class="st2" d="M377.54,115.82c.13-.92.25-1.79.39-2.85h4.38v6.73c0,4.53-.02,9.06,0,13.59.02,3.91.51,4.44,5.12,5.02-.48,1.37-.54,3.19-1.43,3.77-2.07,1.36-5.23-.45-8.03-4.3-3.8,3.46-8.24,5.29-13.43,4.39-3.59-.62-6.59-2.39-8.95-5.19-4.54-5.38-4.66-13.38-.3-18.98,5.12-6.56,12.21-7.28,22.24-2.18h0ZM367.29,116.79c-5.91-.05-10.64,4.54-10.73,10.4-.09,5.76,4.68,10.66,10.47,10.75,5.77.09,10.61-4.66,10.67-10.49.06-5.94-4.5-10.61-10.41-10.66h0Z"/>
    <path class="st2" d="M345.46,127.85h-24.91c-.23,4.14,2.17,7.65,6.1,9.24,4.38,1.77,9.31.54,12.3-3.08,1.47-1.79,3.38-2.53,5.72-2.22-.72,6.35-8.29,11.33-15.94,10.47-8.16-.91-13.9-8.52-12.91-17.11.88-7.61,8.36-13.64,16.01-12.91,8.34.8,14.41,7.62,13.63,15.61ZM321.3,123.74h18.88c-1.22-4.43-4.97-7.05-9.77-6.94-4.49.1-8.2,2.86-9.11,6.94h0Z"/>
    <path class="st2" d="M289.76,113.3c3.23-.31,6.02-1.06,8.68-.74,4.75.57,8.49,4.35,8.74,9.08.36,6.6.09,13.24.09,20.01h-4.27v-3.74c0-4.74.09-9.48-.04-14.21-.12-4.33-2.85-7-6.76-6.89-3.71.1-6.21,2.83-6.26,7.07-.07,5.83-.02,11.66-.02,17.7h-4.19v-52.93h4.04v24.66h0Z"/>
    <path class="st2" d="M429.68,88.55h4.09v24.67c3.21-.26,6.1-.97,8.85-.61,4.7.61,8.33,4.54,8.55,9.26.3,6.51.07,13.05.07,19.74h-4.31c0-5.94.05-11.75-.02-17.56-.05-4.06-2.18-6.73-5.52-7.19-4.26-.59-7.45,2.27-7.52,6.96-.09,5.83-.02,11.67-.02,17.73h-4.17v-53h0Z"/>
    <path class="st2" d="M192.01,142.35c-8.44.04-15.25-6.71-15.22-15.09.03-8.21,6.79-14.99,15.01-15.07,8.34-.08,15.19,6.77,15.17,15.16-.02,8.3-6.66,14.95-14.97,14.99h.01ZM181.39,127.16c-.07,5.89,4.52,10.66,10.37,10.77,5.73.11,10.65-4.68,10.77-10.46.12-5.78-4.62-10.62-10.46-10.68-5.97-.07-10.61,4.44-10.67,10.37h0Z"/>
    <path class="st2" d="M123.02,127.29c0,8.48-6.66,15.11-15.16,15.06-8.28-.05-14.96-6.75-14.97-15.02-.01-8.32,6.95-15.24,15.24-15.14,8.29.1,14.88,6.79,14.89,15.1ZM108.1,116.78c-5.92-.05-10.57,4.48-10.64,10.35-.07,5.98,4.68,10.84,10.58,10.8,5.73-.03,10.55-4.86,10.58-10.59.02-5.77-4.7-10.52-10.51-10.57h-.01Z"/>
    <path class="st2" d="M75.78,102.88h-11.98v-4.47h28.48c.07,1.33.14,2.68.23,4.44h-12.07v38.75h-4.65v-38.72h0Z"/>
    <path class="st2" d="M231.82,112.91h4.07c0,7.36.45,14.6-.15,21.76-.42,4.97-5.15,7.79-10.74,7.68-5.31-.1-9.72-3.2-10.05-8.15-.47-6.99-.12-14.03-.12-21.25h4.16v14.17c0,1.41-.03,2.82.04,4.23.21,3.95,2.84,6.62,6.44,6.58,3.64-.04,6.21-2.65,6.31-6.7.12-5.03.04-10.07.05-15.11v-3.2h-.01Z"/>
    <path class="st2" d="M421.23,138.03c.99,3.18-.32,4.2-2.98,4.31-4.82.2-8.6-3.01-8.81-7.91-.2-4.52-.07-9.05-.09-13.58v-3.48c-1.64-.15-3-.27-4.62-.41v-4.04c1.35-.1,2.72-.2,4.55-.33v-12.28h4.51v12.37h7.6v4.42h-7.55c0,5.84-.08,11.26.04,16.68.06,2.57,1.64,4.02,4.22,4.23.99.08,2,0,3.13,0h0Z"/>
    <path class="st2" d="M393.45,88.6h4.13v53.01h-4.13v-53.01Z"/>
    <path class="st2" d="M250.51,141.61h-4.33v-28.62h4.19c.09,1.06.18,2.02.24,2.69,2.51-1.09,4.94-2.52,7.55-3.18,4.09-1.03,4.67-.26,3.92,4.31-.84,0-1.72-.04-2.6,0-5.05.29-8.8,4.12-8.95,9.19-.07,2.61-.02,5.23-.02,7.84v7.77h0Z"/>
  </g>
</svg>